<svg xmlns="http://www.w3.org/2000/svg" viewBox="0 0 512 512" fill="none" role="img" aria-label="OpsBrain">
  <rect width="512" height="512" fill="#121820"/>
  <g clip-path="url(#leftHalf)">
    <path
      d="M256 96c-52 0-96 36-104 88-28 8-48 32-48 64s20 56 48 64c8 36 36 64 72 72 12 4 24 4 36 0 8-2 16-6 24-10"
      stroke="#FFFFFF"
      stroke-width="14"
      stroke-linecap="round"
      stroke-linejoin="round"
      fill="none"
    />
    <path d="M168 200c20-16 48-24 76-20" stroke="#FFFFFF" stroke-width="10" stroke-linecap="round" fill="none"/>
    <path d="M176 248c24-8 52-8 76 4" stroke="#FFFFFF" stroke-width="10" stroke-linecap="round" fill="none"/>
    <path d="M188 296c16 12 28 28 32 48" stroke="#FFFFFF" stroke-width="10" stroke-linecap="round" fill="none"/>
    <path d="M208 340c12 8 24 12 40 12" stroke="#FFFFFF" stroke-width="8" stroke-linecap="round" fill="none"/>
  </g>
  <g clip-path="url(#rightHalf)">
    <path d="M272 128v72" stroke="#3B8FD9" stroke-width="8" stroke-linecap="round"/>
    <circle cx="272" cy="120" r="10" fill="#3B8FD9"/>
    <path d="M304 144v96l16-16 16 16V144" stroke="#3B8FD9" stroke-width="8" stroke-linecap="round" stroke-linejoin="round" fill="none"/>
    <circle cx="304" cy="136" r="10" fill="#3B8FD9"/>
    <path d="M336 112v128" stroke="#3B8FD9" stroke-width="8" stroke-linecap="round"/>
    <circle cx="336" cy="104" r="10" fill="#3B8FD9"/>
    <path d="M368 152v88l12-12 12 12V152" stroke="#3B8FD9" stroke-width="8" stroke-linecap="round" stroke-linejoin="round" fill="none"/>
    <circle cx="368" cy="144" r="10" fill="#3B8FD9"/>
    <rect x="268" y="352" width="20" height="32" rx="3" fill="#3B8FD9"/>
    <rect x="296" y="336" width="20" height="48" rx="3" fill="#3B8FD9"/>
    <rect x="324" y="320" width="20" height="64" rx="3" fill="#3B8FD9"/>
    <rect x="352" y="304" width="20" height="80" rx="3" fill="#3B8FD9"/>
  </g>
  <defs>
    <clipPath id="leftHalf">
      <rect x="0" y="0" width="256" height="512"/>
    </clipPath>
    <clipPath id="rightHalf">
      <rect x="256" y="0" width="256" height="512"/>
    </clipPath>
  </defs>
</svg>
